# xmcd
#
# Track frame offsets: 
#        150
#        17319
#        42758
#        74950
#        104836
#        130506
#        146341
#
# Disc length: 2321 seconds
#
# Revision: 0
# Processed by: cddbd v1.5.2PL0 Copyright (c) Steve Scherf et al.
# Submitted via: ExactAudioCopy v0.95b4
#
DISCID=5e090f07
DTITLE=Dave Brubeck - Angel Eyes
DYEAR=1962
DGENRE=Jazz
TTITLE0=Let's Get Away From It All
TTITLE1=Violets For Your Furs
TTITLE2=Angel Eyes
TTITLE3=Will You Still Be Mine?
TTITLE4=Everything Happens To Me
TTITLE5=Little Man With A Candy Cigar
TTITLE6=The Night We Called It A Day
EXTD=
EXTT0=
EXTT1=
EXTT2=
EXTT3=
EXTT4=
EXTT5=
EXTT6=
PLAYORDER=
